<?xml version="1.0" encoding="utf-8"?>
<!-- Generator: Adobe Illustrator 24.3.0, SVG Export Plug-In . SVG Version: 6.00 Build 0)  -->
<svg version="1.1" id="Camada_1" xmlns="http://www.w3.org/2000/svg" xmlns:xlink="http://www.w3.org/1999/xlink" x="0px" y="0px"
	 viewBox="0 0 512 512" style="enable-background:new 0 0 512 512;" xml:space="preserve">
<style type="text/css">
	.st0{fill:url(#SVGID_1_);}
	.st1{fill:url(#SVGID_2_);}
	.st2{fill:url(#SVGID_3_);}
</style>
<g>
	<linearGradient id="SVGID_1_" gradientUnits="userSpaceOnUse" x1="1.019" y1="181.8766" x2="304.3748" y2="181.8766">
		<stop  offset="0" style="stop-color:#DA8CFF"/>
		<stop  offset="0" style="stop-color:#DA8CFF"/>
		<stop  offset="1" style="stop-color:#9A55FF"/>
	</linearGradient>
	<path class="st0" d="M299.9,191.2l-5.2-14.2l-20-51.3c8.5-5,15.8-12.1,21-20.6c2.7-4.4,4.8-9.2,6.2-14.1c3.7-13.8,3-28.4-2-41.8
		c-5.3-14.4-15.2-26.6-28.1-34.8c-5.6-3.5-11.7-6.2-18.1-8c-18-5.1-35.5-2.8-50.5,2.6c-18,6.5-32.8,17.9-40.6,26.1
		c-4.6-2.1-10.3-3.7-17.1-4.7c-23.2-3.4-48.3,3.4-69.2,16.5s-38,32.8-45.1,55.2c-4.6,14.5-5.7,29.9-3.3,45c0.9,5.7,2.4,10.7,4.2,15
		c-11.3,8.8-35,32.2-30.6,71.5c1.6,14.6,10.8,35.7,24.4,50.2c-0.9,2.1-1.8,4.2-2.4,6.4c-3,10.6-2.3,22,2,32.1
		c3.9,9.7,10.8,18,19.7,23.6c3.2,2,6.7,3.6,10.4,4.7c13.4,3.9,26.7,1.2,37.8-6.5c10.8-7.4,19.3-19.4,23.7-34.2
		c6.5-22.2,26.8-68.6,31-78.2c10.2-9,18.4-20,24.1-32.4c3.6-7.8,5.7-16,6.5-24.5c27.9-8.7,41.5-24.5,47.8-40.1
		c9.5,1,20.7,0.7,31.8-2.3l17.4,45.1c-96.6,35.1-115.3,124.4-123.2,150.3c-3.9-1.1-33.9,0.6-44.3,11.6c19.4,0.9,53.1,14.7,70.9,20.9
		C179.2,235.5,228.9,212.2,299.9,191.2z M230.2,117.1c-0.9-13.7-10.6-28.1-20.3-31.6l2.3,8.6c0,0.1,2.5,8.9,1.1,20.2l0,0l-1.5,7.6
		c-3.5,12.5-12.5,26.2-34,34.3c-4.6-16.8-20.9-29.6-32.5-26.2l5.4,7.1c4.5,5.8,7.6,12.5,9.3,19.7c2.8,11.7,1,23.9-4,35.2
		c-5.5,12-14,22.5-24.7,30.4c-9.1,6.9-19.5,11.8-30.6,14.4l-8.7,2c4,4.4,15.4,10.8,30.4,7.4c-7.8,18.5-18,43.5-22.4,58.6
		c-3.2,10.8-9.2,19.4-16.7,24.5c-6.7,4.6-14.7,6.3-22.7,4c-2.1-0.6-4.1-1.5-6-2.7c-5.7-3.6-10.1-9-12.6-15.2
		c-2.7-6.3-3.2-13.4-1.4-20.1c9.4,5.1,19.9,6.5,30.9,1.7l-7.9-4.2c-0.1,0-39.9-20.8-44.4-61.4c-3.3-29.8,14.1-47.7,22.9-54.7
		c7.5,7.1,16.2,9.2,22.4,7.7l-5.4-7.1c-6.6-8.6-11.6-20.3-13.6-33.1c-2-12.3-1.1-24.9,2.7-36.8c5.8-18.3,20-34.5,37.6-45.5
		s38.3-16.8,57.1-14c7,1,12.9,3.1,17.6,5.3l4.7,2.6c6.5,3.9,9.8,7.8,9.8,7.8l5.9,6.7c2.1-6.8,1.8-16.4-4.3-24.6
		c5.8-6,17.6-14.7,32.6-20.1c12-4.3,25.7-6.2,39.5-2.3c4.8,1.4,9.4,3.4,13.6,6c9.7,6.1,17,15.2,20.9,25.9c3.7,9.8,4.3,20.5,1.6,30.7
		c-1,3.4-2.4,6.6-4.2,9.6c-5.3,8.6-13.4,15-22.9,18.3C248.5,117.3,238.6,117.8,230.2,117.1z"/>
	<linearGradient id="SVGID_2_" gradientUnits="userSpaceOnUse" x1="213.506" y1="365.1288" x2="369.6111" y2="365.1288">
		<stop  offset="0" style="stop-color:#DA8CFF"/>
		<stop  offset="0" style="stop-color:#DA8CFF"/>
		<stop  offset="1" style="stop-color:#9A55FF"/>
	</linearGradient>
	<path class="st1" d="M361.6,344.5c-1.2-2.2-3.2-3.8-5.6-4.5c-5.1-1.6-13.9-1.9-26.6-0.9c-5.5,0.4-11,1.3-16.4,2.7
		c-5.1,1.6-7.6,3.2-7.5,4.8c0.2,0.8,0.7,1.5,1.4,1.9c1.8,1.4,5.1,1.9,9.9,1.6c2.9-0.1,13.3-0.8,31-2.3c3.7,6.7,6.2,18.9,7.7,36.7
		c3,40.4-1.6,71-13.7,91.9c-4.6,7.2-9.2,12.2-13.8,15.1l-2.9,1.7l-3.6-3c-8.4-7.5-17.4-18.7-26.9-33.7c-5.2-8.1-9.7-16.7-13.4-25.6
		c-4-10.3-7.3-20.8-9.8-31.5c-0.5-2.1-1-4.1-1.3-5.9s-0.6-4.2-0.9-7c-0.3-2.8-0.6-6.8-1-11.8c-0.5-5.4-0.8-9.5-0.9-12.4
		c-0.3-4.8-0.3-9.6,0.2-14.3c1.4-22.8,6.6-45.2,15.4-66.2c4.8-11.8,9.3-20.9,13.3-27.1c6-9.3,12.7-14.3,19.9-14.9
		c1-0.1,2.1-0.1,3.1-0.1c0.8,0,2.5,0.7,4.9,2.1c11,5.6,19,15.8,24.1,30.6c1.6,4.3,2.5,8.8,2.9,13.4c0.4,5,0.3,9.9-0.2,14.9l-0.7,7.6
		c0.9,2.3,2.9,3.4,5.9,3.1c5-0.4,7.8-7.6,8.7-21.6c0-1.3-0.1-2.8-0.2-4.4c-1.4-17.1-6.1-30.7-14.2-40.6
		c-7.1-8.6-15.2-14.8-24.3-18.6c-8.1-3.4-18.8-4.7-32.1-3.9c-8.2,0.7-16.2,2.7-23.8,6c-14.5,6.6-26.6,18.9-36.2,36.9s-16,40-19,66.1
		c-1.6,13.7-1.8,27.6-0.6,41.3c1.2,14.5,3.8,28.9,7.6,43c4.5,18.1,12,35.4,22,51.1c7.4,11.5,17.2,21.3,28.6,28.8
		c11.5,7.6,23.2,12,35.1,13.2c4.5,0.2,8.9,0,13.4-0.4c2.7-0.2,5.3-0.5,8-1c13.5-2.9,23.4-12.3,29.7-28.2c7.6-19.6,11.2-44.9,11-75.9
		c-0.1-5.6-0.4-11.3-0.9-17.2C367,364.5,364.6,350.8,361.6,344.5z"/>
	<linearGradient id="SVGID_3_" gradientUnits="userSpaceOnUse" x1="380.8818" y1="373.3818" x2="511" y2="373.3818">
		<stop  offset="0" style="stop-color:#DA8CFF"/>
		<stop  offset="0" style="stop-color:#DA8CFF"/>
		<stop  offset="1" style="stop-color:#9A55FF"/>
	</linearGradient>
	<path class="st2" d="M503.5,316.8c-17.1,1-34.1,2-51.2,2.8l-2.2-1.5c-6.8-4.9-14.9-7.1-24.3-6.7c-8.8,0.4-13.7,2.5-14.7,6.3
		c-0.2,1.2-1.2,1.9-2.8,2.3c-10.8,2.5-18.7,12-23.8,28.6c-2.6,9.8-3.8,19.9-3.5,30c0.4,10.8,3.2,21.4,8.1,31
		c8.1,14.6,20.2,23.1,36.2,25.4c2.4,0.3,4.8,0.4,7.2,0.4c8.5-0.3,16.4-4.1,22-10.5c7.5-7.6,12.8-19.3,15.8-34.9
		c1.5-8.2,2.2-16.6,1.8-24.9c-0.6-13.3-3.9-24.7-9.8-34c0-0.5,14.5-1.4,43.7-2.8c3.2-0.2,4.9-2.1,5.1-5.7
		C510.5,318.5,508.1,316.6,503.5,316.8z M452.3,384c-2.8,12.1-7.4,21.5-13.7,28.1c-2.7,2.8-4.5,4.2-5.3,4.2c-0.3,0-0.5-0.9-0.8-2.6
		c-0.8-3.9-1.2-7.9-1.5-11.8c-0.6-12.4,1.3-30.2,5.5-53.6c0.8-4.4,1.1-8.9,1.1-13.4l-0.8-4c0-0.2,1.1-0.3,3.2-0.4c1.3,0,2.7,0,4,0.2
		c1.5,0.2,2.9,1.7,4.5,4.5c0,0,0,0,0,0.1c0,0.1,0.1,0.2,0.3,0.2c1.7,3.3,3.1,6.8,4.1,10.4c0.9,4.4,1.4,8.9,1.5,13.4
		C454.8,367.6,454.1,375.9,452.3,384z"/>
</g>
</svg>
