<?xml version="1.0" encoding="utf-8"?>
<!-- Generator: Adobe Illustrator 24.3.0, SVG Export Plug-In . SVG Version: 6.00 Build 0)  -->
<svg version="1.1" id="Camada_1" xmlns="http://www.w3.org/2000/svg" xmlns:xlink="http://www.w3.org/1999/xlink" x="0px" y="0px"
	 viewBox="0 0 1000 485.1" style="enable-background:new 0 0 1000 485.1;" xml:space="preserve">
<style type="text/css">
	.st0{fill-rule:evenodd;clip-rule:evenodd;fill:url(#SVGID_1_);}
	.st1{fill-rule:evenodd;clip-rule:evenodd;fill:url(#SVGID_2_);}
	.st2{fill-rule:evenodd;clip-rule:evenodd;fill:url(#SVGID_3_);}
	.st3{fill-rule:evenodd;clip-rule:evenodd;fill:url(#SVGID_4_);}
	.st4{fill-rule:evenodd;clip-rule:evenodd;fill:url(#SVGID_5_);}
</style>
<g>
	<linearGradient id="SVGID_1_" gradientUnits="userSpaceOnUse" x1="24.0869" y1="165.9411" x2="282.2859" y2="165.9411">
		<stop  offset="0" style="stop-color:#DA8CFF"/>
		<stop  offset="0" style="stop-color:#DA8CFF"/>
		<stop  offset="1" style="stop-color:#9A55FF"/>
	</linearGradient>
	<path class="st0" d="M278.4,173.8l-4.4-12.1l-17-43.6c6.8-4,13-9.6,17.9-17.5c2.3-3.7,4.1-7.8,5.3-12c3.2-11.2,2.6-23.9-1.7-35.6
		c-4.3-11.6-12.3-22.3-24-29.6c-4.6-2.9-9.8-5.2-15.4-6.8c-15.3-4.4-30.2-2.4-43,2.2C180.9,24.3,168.3,34,161.7,41
		c-4-1.8-8.7-3.2-14.5-4c-19.7-2.9-41.1,2.8-58.9,14c-17.8,11.2-32.3,27.9-38.4,47c-4.1,12.9-4.7,26.1-2.8,38.3
		c0.8,4.9,2,9.1,3.6,12.8c-9.6,7.5-29.8,27.4-26.1,60.8c1.4,12.4,9.2,30.4,20.8,42.8c-0.8,1.8-1.5,3.6-2,5.4
		c-2.7,9.3-1.8,18.9,1.7,27.4c3.4,8.4,9.4,15.5,16.8,20.1c2.8,1.7,5.8,3.1,8.9,4c11.4,3.3,22.7,1,32.2-5.5
		c9.1-6.3,16.5-16.5,20.2-29.1c5.5-18.9,22.8-58.4,26.4-66.5c8.9-7.8,16-17.3,20.5-27.6c3-6.7,4.9-13.7,5.6-20.8
		c23.8-7.4,35.3-20.8,40.7-34.1c8,0.8,17.6,0.6,27-1.9l14.8,38.4c-82.3,29.8-98.2,105.9-104.9,127.9c-3.3-1-28.8,0.5-37.7,9.9
		c16.5,0.8,45.2,12.5,60.3,17.8C175.7,211.6,218,191.8,278.4,173.8z M242.6,108.1c-7.9,2.8-16.3,3.3-23.5,2.7
		c-0.8-11.6-9-23.9-17.3-26.9l2,7.3c0,0.1,2.1,7.5,0.9,17.1l0,0l-1.2,6.3c-2.9,10.7-10.6,22.4-29,29.4
		c-3.9-14.3-17.7-25.2-27.6-22.3l4.6,6.1c4,5.3,6.6,11,8,16.7c2.3,10,0.8,20.3-3.4,29.9c-4.4,9.9-11.7,18.9-21,25.9
		c-7.6,5.7-16.5,10.1-26.1,12.3l-7.4,1.7c3.4,3.8,13.1,9.2,25.9,6.3c-6.7,15.7-15.3,37-19.1,49.9c-2.7,9.2-7.8,16.5-14.2,20.9
		c-5.8,4-12.6,5.4-19.4,3.4c-1.8-0.5-3.5-1.3-5.1-2.3c-4.7-2.9-8.5-7.5-10.7-13c-2.2-5.3-2.8-11.3-1.2-17.1c8,4.3,16.9,5.5,26.3,1.5
		l-6.7-3.6c-0.1,0-34-17.7-37.8-52.3c-2.8-25.4,12-40.6,19.5-46.5c6.4,6,13.8,7.8,19.1,6.5l-4.6-6c-5.6-7.4-9.8-17.3-11.5-28.2
		c-1.6-10-1.1-20.8,2.2-31.3c5-15.6,17-29.4,32-38.7c14.9-9.4,32.6-14.2,48.6-11.9c5.8,0.8,10.7,2.5,14.6,4.4l4.6,2.5
		c5.4,3.3,8.1,6.5,8.1,6.5l5,5.7c1.7-5.8,1.5-14-3.7-20.9c4.9-5.1,15-12.5,27.7-17.1c10.2-3.7,21.9-5.3,33.6-1.9
		c4.3,1.2,8.2,3,11.6,5.1c8.6,5.4,14.6,13.3,17.8,22c3.2,8.7,3.7,18,1.3,26.1c-0.8,3-2,5.7-3.6,8.2C257,100.6,250,105.4,242.6,108.1
		z"/>
	<linearGradient id="SVGID_2_" gradientUnits="userSpaceOnUse" x1="202.3844" y1="325.6758" x2="335.249" y2="325.6758">
		<stop  offset="0" style="stop-color:#DA8CFF"/>
		<stop  offset="0" style="stop-color:#DA8CFF"/>
		<stop  offset="1" style="stop-color:#9A55FF"/>
	</linearGradient>
	<path class="st1" d="M335.2,357.8c-0.1-4.8-0.3-9.7-0.8-14.6c-1.5-18-3.5-29.7-6.1-35.1c-0.9-1.8-2.5-3.1-4.8-3.8
		c-4.3-1.4-11.8-1.6-22.6-0.8c-5.5,0.5-10.2,1.2-14,2.3c-4.4,1.3-6.5,2.7-6.4,4.1c0,0.5,0.4,1.1,1.2,1.6c1.5,1.2,4.4,1.6,8.4,1.4
		c2.5-0.1,11.3-0.7,26.4-2c3.1,5.7,5.3,16.1,6.6,31.3c2.5,34.4-1.4,60.5-11.7,78.2c-3.9,6.1-7.8,10.4-11.7,12.8l-2.5,1.5l-3.1-2.6
		c-7.1-6.3-14.8-15.9-22.9-28.7c-4.6-7.2-8.4-14.5-11.4-21.8c-3-7.3-5.8-16.3-8.4-26.8c-0.5-1.8-0.8-3.5-1.1-5
		c-0.3-1.6-0.5-3.6-0.8-6c-0.2-2.4-0.5-5.8-0.9-10.1c-0.4-4.6-0.6-8.1-0.8-10.5c-0.3-3.4-0.2-7.5,0.1-12.2
		c1.2-19.8,5.6-38.6,13.1-56.4c4.1-10.1,7.9-17.8,11.3-23.1c5.1-7.9,10.8-12.2,17-12.7c1.1-0.1,2-0.1,2.7-0.1c0.7,0,2.1,0.6,4.2,1.8
		c9.4,4.8,16.2,13.5,20.5,26c1.3,3.4,2.1,7.2,2.4,11.4c0.3,3.9,0.2,8.2-0.2,12.7l-0.6,6.4c0.8,2,2.4,2.9,5,2.7
		c4.2-0.4,6.7-6.5,7.4-18.4c0-1.1-0.1-2.4-0.2-3.8c-1.2-14.6-5.2-26.1-12.1-34.6c-6-7.3-12.9-12.6-20.7-15.9c-6.9-2.9-16-4-27.3-3.3
		c-6.8,0.6-13.5,2.3-20.2,5.1c-12.4,5.7-22.7,16.1-30.9,31.4s-13.6,34-16.2,56.3c-1.3,11.5-1.5,23.2-0.5,35.2
		c1,12,3.1,24.2,6.4,36.6c4.1,16,10.4,30.5,18.8,43.5c6.4,9.9,14.5,18,24.4,24.5c9.8,6.5,19.8,10.2,29.9,11.3
		c2.5,0.2,6.3,0,11.4-0.4c2.7-0.2,5-0.5,6.8-0.9c11.5-2.5,19.9-10.5,25.3-24C332.3,405.7,335.4,384.2,335.2,357.8z"/>
	<linearGradient id="SVGID_3_" gradientUnits="userSpaceOnUse" x1="344.808" y1="332.6494" x2="455.5601" y2="332.6494">
		<stop  offset="0" style="stop-color:#DA8CFF"/>
		<stop  offset="0" style="stop-color:#DA8CFF"/>
		<stop  offset="1" style="stop-color:#9A55FF"/>
	</linearGradient>
	<path class="st2" d="M351.8,363.5c6.9,12.4,17.2,19.6,30.8,21.6c2.1,0.3,4.2,0.4,6.2,0.3c7.3-0.3,13.6-3.3,18.7-8.9
		c6.4-6.5,10.9-16.4,13.5-29.7c1.3-7.3,1.9-14.3,1.5-21.2c-0.5-11.4-3.3-21-8.4-29c0-0.4,12.4-1.2,37.2-2.3c2.7-0.2,4.2-1.8,4.3-4.9
		c-0.4-3.4-2.5-5-6.4-4.8c-14.5,0.9-29,1.7-43.6,2.4l-1.9-1.3c-5.8-4.1-12.7-6-20.7-5.7c-7.5,0.3-11.7,2.1-12.5,5.3
		c-0.2,1-1,1.6-2.4,1.9c-9.2,2.1-15.9,10.2-20.3,24.3c-2.3,9-3.3,17.5-3,25.5C345.3,346.5,347.6,355.3,351.8,363.5z M392.2,311.4
		c0.8-5.1,1.1-8.9,1-11.4l-0.7-3.4c0-0.2,0.9-0.3,2.7-0.4c1.1,0,2.2,0,3.4,0.2c1.2,0.2,2.5,1.4,3.8,3.8c0,0.2,0.1,0.2,0.2,0.2
		c1.7,3.3,2.8,6.2,3.5,8.8c0.6,2.6,1.1,6.4,1.3,11.4c0.3,7.4-0.3,14.4-1.8,21c-2.4,10.3-6.3,18.2-11.7,24c-2.3,2.4-3.8,3.6-4.5,3.6
		c-0.2,0-0.5-0.7-0.7-2.2c-0.7-3.8-1.1-7.2-1.2-10.1C387,346.5,388.6,331.3,392.2,311.4z"/>
	<linearGradient id="SVGID_4_" gradientUnits="userSpaceOnUse" x1="496.2661" y1="317.7968" x2="974.7329" y2="317.7968">
		<stop  offset="0" style="stop-color:#DA8CFF"/>
		<stop  offset="0" style="stop-color:#DA8CFF"/>
		<stop  offset="1" style="stop-color:#9A55FF"/>
	</linearGradient>
	<path class="st3" d="M974.7,372.1c-0.3-1.9-2-3.3-5.2-4.2c-1.3-0.3-2.3,0.1-2.8,1.3c-9.1,20.3-18.4,33.8-28,40.5
		c-1,0.6-2.2,1.2-3.6,1.6l2-12.4c1.7-9.8,3.8-19.2,6.3-28c1.8-6.8,6.9-21.5,15.1-44c1.5-4.1,2.5-7.7,3-10.9c0.4-2.3,0.6-4.4,0.5-6.2
		c-0.6-6.3-3-11.4-7-15.3c-2.6-2.5-5.2-4.1-7.7-4.7c-2.7-0.7-5.3-0.2-7.9,1.5c-4.2,2.5-9.9,13.1-17,31.8c-2.1,5.9-4.3,10.5-6.6,14
		c-8.5,13.4-15.2,22.7-20.1,27.7c-4.7,4.3-7.2,6.4-7.7,6.3c-0.1,0-0.1-0.2-0.1-0.6c0.4-2.3,2.8-8.6,7.4-18.8s7.1-17.2,7.7-20.9
		l0.5-2.6c1.2-7-1.1-12.6-7-16.6c-1.9-1.4-3.7-2.4-5.5-2.8c-4.9-1.2-9.4,1.5-13.5,8c-4.3,6.8-7.2,14-9,21.6
		c-0.1,0.1-0.2,0.1-0.2,0.2c-0.2,0.4-4.1,11.3-11.7,32.8c-2.1,6-4.9,13-8.2,20.8c-6.1,13.6-11.7,23.1-16.9,28.3
		c-0.5,0.3-1,0.5-1.3,0.4c-0.7-0.1-1-1.2-0.8-3.4c0.4-3.7,1.4-10.1,3.1-19.2c0.6-2.4,1.2-5,1.7-8c0.5-3,1.7-9.2,3.6-18.6
		c5.6-27.1,9.2-48.4,10.8-63.7c0.5-5.1-0.1-10-1.8-14.9c-1-3.8-3.3-7.5-6.9-11.2c-5.3-5.2-11-8.3-17.3-9.3c-2.7-0.4-5.2-0.2-7.4,0.6
		c-2.2,0.8-5,3.1-8.3,6.8c-3.3,3.7-6.6,8.1-9.9,13.1c-4.4,7-8.9,16.6-13.5,28.6c-6.7,18.3-10.3,27.7-10.7,28.2
		c-0.5-0.7-0.4-6.5,0.3-17.2c0.3-3.6,0.8-8.7,1.4-15.2c0.5-5.1,0.8-7.9,0.7-8.6c-0.5-4.9-4.8-9.6-12.7-14.1c-1.9-1.1-4.6-1.9-8-2.4
		c-2.5-0.4-4.2-0.5-5.1-0.4c-2.1,0.3-3.7,1.7-4.9,4.1c-0.9,1.9-1.7,5-2.5,9.4c-0.5,3.3-1.2,9.7-2.2,19.3c-1,1.4-2.7,4.5-5.2,9.3
		c-13.2,25-22.6,37.2-28.3,36.7c-0.7-0.1-1.1-1-1.2-2.9c-0.6-3.2-1.2-8.2-2-15c-0.5-4.9-0.7-9.1-0.5-12.5c0.4-5.8,0.7-8.9,0.9-9.3
		s0.7-0.8,1.3-1.2c13.3-9.3,22.5-20.5,27.5-33.3c0.8-2.3,1.2-4.8,1.4-7.6c0.1-2.3,0-4.4-0.4-6.4c-1.1-5.2-4.3-10.2-9.6-15
		c-4.4-3.6-8.9-5.6-13.6-6.1c-3.8-0.3-7.6,0.4-11.5,2.2c-3.9,2.5-7.5,5.4-10.8,8.7c-10.5,11.6-16.5,30.1-18.1,55.7
		c-0.4,5.5-0.1,10.7,0.6,15.6c-6.8,43.5-12.6,65.1-17.5,65c-1,0-2.1-0.9-3.3-2.6c-0.8-1.8-1.6-4.2-2.4-7.2c-1.2-5.3-1.8-13-1.5-23.2
		c0.4-16.9,2.7-39.8,7.1-68.8c2.6-17.6,4.3-30.5,5.2-38.7c0.3-3.6,0.5-8.4,0.7-14.5c0.1-6,0.1-10.5,0-13.6
		c-1.2-18.6-7.7-30.7-19.5-36.1c-1.9-0.9-3.4-1.3-4.5-1.4l-5.3-0.3c-8.7-0.3-17.2,13-25.5,39.9c-2.7,8.8-6.4,23-10.9,42.6
		c-4.1,17.8-7.6,33.7-10.5,47.9l-0.2-27.7c-0.1-7-0.4-12.8-1-17.2c-1.2-8.8-5.6-15.6-13.1-20.3c-3.6-2.2-7.6-3.3-12.2-3.5
		c-3.8-0.1-6.6,1.5-8.2,4.8c-3.6,7.3-9.3,30.1-17.2,68.3c0.8-31.1,1.7-56.3,2.5-75.5l0.2-7.8c0.1-3.3-0.1-5.6-0.5-6.9
		c-0.3-0.8-0.7-1.5-1.1-2.2c-2.5-4.2-6.7-7.6-12.4-10c-3.5-1.4-6.6-2.1-9.2-2.2c-4.6-0.1-7.3,1.6-8.3,5.3c-0.6,2.3-1.3,9.4-2.3,21.5
		c-1.9,21.9-3,41.1-3.3,57.4c-0.3,16.2,0.1,29.6,1.3,40.1c0.5,5.3,1.2,9.3,2,12c1.8,6.1,6.1,10.2,13,12.5c1.8,0.7,3.4,1,4.6,1l2.9,0
		c6,0,9.8-1.8,11.2-5.4c1.2-2.4,2.4-5.1,3.5-8c1.1-3.3,3.3-13.1,6.4-29.3c0.3-1.6,1.2-6.3,2.8-14.2c1.1-5.5,2.4-11.2,3.8-17
		l-0.6,18.1c-0.3,12.9,0.8,22.1,3.3,27.6c0.8,1.8,2,3.7,3.6,5.6c5.2,6.6,12.1,10,20.7,10.3c4,0.1,6.9-1.1,8.7-3.6
		c0.9-1.4,2-4,3.3-7.6c1.3-3.7,2.3-6.9,3-9.7c1.1-5,2.4-12.3,4.1-21.8c8-40.3,15.7-68.7,23-85.1c2.2-5,5.3-10.3,9.2-15.9
		c0.2,3.5,0.3,7,0.2,10.6c-0.1,4-0.3,7.9-0.5,11.8c-0.6,8.3-2,19-4.2,32c-6.5,40-9.9,70-10.3,90c-0.4,17,1.2,28.8,4.7,35.6
		c0.9,1.8,2.2,3.9,3.8,6.1c1.6,2.2,3.1,4,4.5,5.3c1.8,1.6,3.9,3,6.5,4.3c4.7,2.4,9.6,3.7,14.8,3.9c3.7,0.1,6.8-0.6,9.3-2.1
		c7.7-4.5,14.6-25.5,20.7-63c2.1,4.7,4.4,8.3,6.8,10.7c6.3,6.4,12.8,9.9,19.6,10.5c4.9,0.4,9.2-0.3,12.7-2.2
		c6.1-3.6,13.2-13.1,21.1-28.6c1-2,2.3-4.8,3.9-8.1c0.2,3.2,0.6,6,1.1,8.6c1.2,4.9,3.5,9.6,7.1,14c5.8,7.4,12.5,11.6,19.9,12.7
		c3.7,0.6,6.4-0.4,8-2.9c2-3.3,4.8-10.5,8.4-21.5c4.9-15,9.2-27,12.9-36.2c5.7-13.4,12.2-23.8,19.4-31.2c-0.2,3.8-0.5,8.3-1.1,13.6
		c-0.8,7.9-2.2,16.8-4.1,27c-5.7,27.7-8.8,43.9-9.3,48.7c-0.6,5.2-0.6,10.1,0,14.8c1.1,12.9,4.9,23.4,11.4,31.5
		c1.8,2.6,3.6,4.5,5.4,5.9c3,2.6,6,4,8.9,4.5c2.8,0.2,4.7,0.2,5.5,0.1c4.7-1.3,10.2-7.3,16.6-18c6.4-10.3,13.1-26.5,20.1-48.5
		c1.3,3.8,3,7.1,5.3,9.9c3,3.5,6.4,5.7,10.2,6.6c1.3,0.3,2.5,0.3,3.5,0c5-1.5,12.4-9,22.1-22.5c-1.1,4.3-2,8.4-2.8,12.4
		c-2.1,12.2-1.7,22,1.2,29.6c3.4,9.5,9.4,16.5,17.8,21.2c0.7,0.5,1.6,0.8,2.6,1c2.9,0.7,5.3,0.9,7.2,0.5c4.4-0.8,10.6-6.4,18.7-16.6
		c6.4-9.8,11.5-18.4,15.1-25.7C973.6,376.8,974.9,373.2,974.7,372.1z M705.8,317.6c0-0.3,0.2-0.9,0.4-1.6c0.2-0.7,0.6-2,1-3.8
		c1.2-4.2,3-9.4,5.3-15.5c2.4-6.1,4.4-10.6,5.9-13.6c0.9-1.8,2-3.4,3.4-4.7c0.7-1,1.3-1.5,1.6-1.6c0.3,0,0.5,0.2,0.8,0.6
		c1.2,1.7,1.7,4.6,1.4,8.8c-0.1,2.3-0.6,4.5-1.4,6.5c-3.7,9.5-9.1,17.5-16.2,24l-2.4,2c-0.1,0-0.1-0.1-0.1-0.2
		C705.7,318.2,705.7,318,705.8,317.6z"/>
	<linearGradient id="SVGID_5_" gradientUnits="userSpaceOnUse" x1="321.1337" y1="445.4211" x2="602.4836" y2="445.4211">
		<stop  offset="0" style="stop-color:#DA8CFF"/>
		<stop  offset="0" style="stop-color:#DA8CFF"/>
		<stop  offset="1" style="stop-color:#9A55FF"/>
	</linearGradient>
	<path class="st4" d="M578.9,423.8c-57.3-8.6-135-12.9-222.7,10.6c-59,15.8-34.3,45.4,7.2,38.4c9.4-1.6,16.4-4.9,32.5-10.9
		c39.2-14.7,101.9-30,181.8-22.8c19.6,1.8,25.2-1.5,24.8-6.3C602.2,429.3,595.2,426.3,578.9,423.8z"/>
</g>
</svg>
