<?xml version="1.0" encoding="utf-8"?>
<!-- Generator: Adobe Illustrator 24.3.0, SVG Export Plug-In . SVG Version: 6.00 Build 0)  -->
<svg version="1.1" id="Camada_1" xmlns="http://www.w3.org/2000/svg" xmlns:xlink="http://www.w3.org/1999/xlink" x="0px" y="0px"
	 viewBox="0 0 984.8 366.9" style="enable-background:new 0 0 984.8 366.9;" xml:space="preserve">
<style type="text/css">
	.st0{fill:#D285FF;}
	.st1{fill-rule:evenodd;clip-rule:evenodd;fill:#D285FF;}
</style>
<g>
	<g>
		<g>
			<path class="st0" d="M122.7,320.1c-6.3,0.5-11.1,0.7-14.2,0.5c-12.7-1.3-25.2-6-37.4-14.1c-12.3-8.1-22.5-18.3-30.5-30.7
				C30,259.4,22.2,241.3,17,221.2c-4.1-15.6-6.8-30.9-8.1-45.9c-1.2-14.9-1-29.6,0.7-44c3.2-27.9,10-51.4,20.2-70.5
				S53,28.6,68.5,21.5c8.4-3.5,16.8-5.7,25.3-6.4c14.1-0.9,25.5,0.5,34.2,4.2c9.8,4,18.4,10.7,25.9,19.9
				c8.6,10.6,13.6,25.1,15.1,43.3c0.1,1.7,0.2,3.3,0.2,4.7c-0.9,14.9-3.9,22.6-9.2,23c-3.2,0.3-5.3-0.9-6.3-3.3l0.8-8.1
				c0.6-5.7,0.7-11,0.3-15.9c-0.4-5.3-1.5-10.1-3-14.3c-5.4-15.7-14-26.6-25.7-32.6c-2.6-1.5-4.3-2.3-5.3-2.3c-0.9,0-2,0-3.3,0.1
				c-7.8,0.6-14.8,5.9-21.2,15.9c-4.3,6.6-9,16.3-14.2,28.9c-9.4,22.3-14.9,45.8-16.5,70.6c-0.5,5.9-0.5,11-0.2,15.3
				c0.2,3,0.5,7.4,1,13.2c0.4,5.4,0.8,9.6,1.1,12.6c0.3,3,0.6,5.5,1,7.5c0.4,2,0.8,4.1,1.4,6.3c3.3,13.3,6.8,24.5,10.5,33.6
				c3.7,9.2,8.5,18.3,14.3,27.3c10.2,16,19.7,28,28.7,35.9l3.8,3.3l3.1-1.8c4.9-3.1,9.8-8.4,14.7-16.1c12.9-22.3,17.8-55,14.6-98
				c-1.6-19-4.3-32.1-8.2-39.2c-18.9,1.6-29.9,2.4-33.1,2.4c-5.1,0.3-8.6-0.2-10.6-1.7c-0.9-0.7-1.4-1.4-1.5-2
				c-0.1-1.7,2.5-3.4,8-5.1c4.7-1.3,10.6-2.3,17.5-2.9c13.5-1.1,23-0.8,28.4,0.9c2.8,0.9,4.8,2.5,6,4.8c3.2,6.7,5.8,21.3,7.6,43.9
				c0.5,6.2,0.8,12.4,0.9,18.3c0.3,33-3.7,60-11.7,80.9c-6.7,16.9-17.3,26.9-31.7,30C128.9,319.4,126.1,319.8,122.7,320.1z"/>
			<path class="st0" d="M241.6,242.5c-2.5,0.1-5,0-7.7-0.4c-17-2.5-29.9-11.5-38.5-27.1c-5.2-10.2-8.1-21.2-8.6-33.1
				c-0.5-10,0.8-20.7,3.7-31.9c5.5-17.7,13.9-27.9,25.4-30.5c1.8-0.4,2.8-1.2,3-2.4c1.1-4,6.3-6.3,15.7-6.7c10-0.5,18.7,1.9,26,7.1
				l2.4,1.6c18.2-0.9,36.4-1.9,54.6-3c4.8-0.2,7.5,1.8,8,6.1c-0.2,3.8-2,5.8-5.4,6.1c-31.1,1.4-46.6,2.4-46.6,2.9
				c6.3,10,9.8,22.1,10.5,36.3c0.4,8.6-0.3,17.5-1.9,26.6c-3.2,16.7-8.9,29.1-16.9,37.2C258.6,238.4,250.7,242.1,241.6,242.5z
				 M242.5,222.4c0.9,0,2.7-1.5,5.6-4.5c6.7-7.1,11.6-17.1,14.6-30c1.9-8.3,2.7-17,2.2-26.3c-0.3-6.3-0.8-11-1.6-14.3
				c-0.8-3.3-2.3-7-4.3-11.1c-0.2,0-0.3-0.1-0.3-0.3c-1.7-3-3.2-4.6-4.8-4.8c-1.5-0.2-3-0.3-4.3-0.2c-2.3,0.1-3.4,0.3-3.4,0.4
				l0.9,4.2c0.1,3.1-0.3,7.9-1.2,14.3c-4.5,24.9-6.4,43.9-5.9,57.1c0.2,3.6,0.7,7.8,1.6,12.6C241.9,221.5,242.2,222.4,242.5,222.4z"
				/>
			<path class="st0" d="M563.4,293.2c-6.5-0.2-12.7-1.8-18.5-4.8c-3.2-1.6-5.9-3.4-8.1-5.4c-1.7-1.7-3.6-3.9-5.6-6.7
				c-2-2.8-3.6-5.3-4.7-7.6c-4.4-8.5-6.3-23.3-5.9-44.6c0.5-25,4.8-62.6,12.9-112.7c2.7-16.3,4.4-29.7,5.2-40.1
				c0.3-4.9,0.5-9.8,0.6-14.7c0.1-4.4,0-8.9-0.3-13.2c-4.9,7.1-8.7,13.7-11.5,20c-9.2,20.6-18.9,56.1-28.9,106.7
				c-2.1,12-3.8,21.1-5.2,27.3c-0.9,3.5-2.1,7.5-3.8,12.1c-1.7,4.6-3,7.8-4.1,9.6c-2.2,3.1-5.8,4.6-10.8,4.5
				c-10.7-0.3-19.3-4.6-25.9-12.9c-2-2.4-3.5-4.8-4.5-7.1c-3.1-6.8-4.5-18.3-4.2-34.5l0.8-22.7c-1.8,7.3-3.4,14.4-4.8,21.3
				c-2.1,9.9-3.2,15.8-3.6,17.8c-3.9,20.3-6.6,32.5-8,36.7c-1.4,3.7-2.8,7.1-4.4,10.1c-1.9,4.5-6.6,6.7-14.1,6.8l-3.6,0
				c-1.5-0.1-3.4-0.5-5.7-1.3c-8.6-2.8-14-8-16.3-15.6c-1.1-3.4-1.9-8.4-2.6-15.1c-1.5-13.2-2-29.9-1.6-50.2
				c0.4-20.4,1.8-44.4,4.2-71.9c1.2-15.1,2.2-24.1,2.9-26.9c1.2-4.6,4.6-6.8,10.4-6.6c3.3,0.1,7.1,1,11.5,2.7
				c7.2,3.1,12.4,7.3,15.6,12.6c0.6,0.9,1.1,1.9,1.4,2.8c0.5,1.6,0.7,4.5,0.6,8.6l-0.3,9.8c-1.1,24.1-2.1,55.6-3.2,94.6
				c9.8-47.9,17-76.5,21.5-85.6c2-4.1,5.4-6.1,10.2-6c5.7,0.2,10.7,1.6,15.2,4.4c9.4,5.9,14.8,14.4,16.4,25.5
				c0.7,5.6,1.1,12.8,1.2,21.6l0.2,34.7c3.6-17.7,7.9-37.7,13.1-60c5.7-24.6,10.3-42.4,13.7-53.4c10.4-33.7,21-50.3,31.9-50l6.6,0.3
				c1.3,0.1,3.2,0.7,5.6,1.8c14.8,6.8,23,21.9,24.5,45.2c0.2,3.9,0.2,9.5,0.1,17c-0.2,7.6-0.4,13.6-0.8,18.1
				c-1.1,10.3-3.2,26.5-6.5,48.5c-5.5,36.3-8.4,65.1-8.9,86.2c-0.3,12.8,0.4,22.5,1.9,29.1c1,3.8,2,6.8,3,9c1.5,2.1,2.9,3.2,4.2,3.3
				c6.2,0.2,13.7-28.2,22.5-85.1c0.7-5.7,1.2-9.1,1.5-10.3c0.4-1.8,1-2.9,1.7-3.5c0.8-0.6,1.9-0.8,3.5-0.8c1.1,0.2,2.3,1.3,3.7,3.3
				c0.1,0.7,0.2,1.4,0.2,2.3c0,1.3-0.2,2.9-0.5,4.6c-8.6,65.3-18.7,101.3-30.2,107.9C572,292.5,568.1,293.3,563.4,293.2z"/>
			<path class="st0" d="M634.1,238.4c-8.5-0.8-16.7-5.2-24.5-13.2c-4.3-4.3-8.1-11.4-11.6-21.3c-3.5-9.9-4.8-20.8-4-32.7
				c2.1-32,9.6-55.3,22.7-69.7c4.1-4.2,8.6-7.8,13.5-10.9c4.9-2.3,9.7-3.2,14.5-2.7c5.8,0.5,11.5,3.1,17,7.6
				c6.6,6,10.6,12.3,12,18.8c0.5,2.5,0.6,5.2,0.5,8c-0.2,3.5-0.8,6.7-1.8,9.6c-6.3,16.1-17.8,30-34.5,41.8c-0.7,0.5-1.3,1-1.6,1.5
				c-0.3,0.5-0.7,4.4-1.2,11.7c-0.3,4.4-0.1,9.6,0.6,15.7c1,8.5,1.8,14.8,2.5,18.8c0.1,2.4,0.6,3.6,1.5,3.7c7.1,0.6,19-14.7,35.5-46
				c3.6-6.9,6-11,7.1-12.4c0.6-0.8,1.2-1.2,1.7-1.2c4.3,0.6,6.4,2.1,6.2,4.4c0,0.3-1.2,3.1-3.5,8.4c-4.5,10-7.9,17.2-10.1,21.8
				c-9.9,19.3-18.7,31.3-26.4,35.8C645.5,238,640.2,238.9,634.1,238.4z M638.6,159l3-2.5c8.9-8.1,15.7-18.1,20.3-30
				c0.9-2.5,1.5-5.3,1.7-8.2c0.3-5.3-0.2-9-1.7-11c-0.3-0.5-0.7-0.7-1-0.7c-0.4,0.1-1.1,0.7-2,2c-1.7,1.7-3.1,3.7-4.2,5.9
				c-1.9,3.7-4.4,9.4-7.4,17c-3,7.7-5.2,14.1-6.7,19.4c-0.5,2.3-0.9,3.9-1.2,4.8c-0.3,0.9-0.5,1.6-0.5,2c0,0.4-0.1,0.8-0.3,1.1
				C638.5,158.9,638.6,159,638.6,159z"/>
			<path class="st0" d="M791.5,302c-3.7-0.6-7.4-2.4-11.2-5.6c-2.3-1.7-4.5-4.1-6.7-7.4c-8.1-10.2-12.8-23.3-14.2-39.5
				c-0.7-5.9-0.7-12,0-18.5c0.6-6,4.5-26.3,11.6-61c2.3-12.7,4-24,5.1-33.8c0.7-6.7,1.2-12.4,1.4-17.1c-9.1,9.2-17.2,22.3-24.3,39.1
				c-4.6,11.5-10,26.6-16.2,45.4c-4.6,13.7-8.1,22.7-10.6,26.9c-2,3.1-5.4,4.3-10,3.6c-9.3-1.4-17.6-6.7-24.9-15.9
				c-4.4-5.6-7.4-11.4-8.9-17.6c-1.8-8.4-2.1-19.3-1-32.7c1.3-12.3,2.3-20.6,2.8-24.7c1-5.4,2.1-9.3,3.2-11.7
				c1.5-3.1,3.5-4.8,6.1-5.2c1.2-0.2,3.3,0,6.4,0.4c4.2,0.6,7.5,1.6,10,3c10,5.6,15.3,11.5,15.9,17.6c0.1,0.9-0.3,4.4-0.9,10.8
				c-0.9,8.2-1.5,14.5-1.8,19c-0.9,13.4-1,20.6-0.4,21.5c0.5-0.6,5-12.4,13.4-35.4c5.7-15.1,11.4-27,16.9-35.8
				c4.1-6.3,8.2-11.8,12.4-16.5c4.1-4.6,7.6-7.5,10.4-8.5c2.8-1,5.9-1.3,9.3-0.8c7.9,1.2,15.1,5,21.7,11.6c4.4,4.6,7.3,9.2,8.6,14
				c2.2,6.1,3,12.3,2.3,18.6c-2,19.2-6.5,45.8-13.5,79.8c-2.3,11.9-3.8,19.6-4.5,23.3c-0.7,3.7-1.4,7-2.1,10
				c-2.1,11.4-3.3,19.4-3.8,24.1c-0.3,2.7,0,4.1,1,4.2c0.4,0.1,1-0.1,1.7-0.5c6.5-6.6,13.5-18.4,21.1-35.5c4.2-9.8,7.6-18.5,10.3-26
				c9.5-26.9,14.4-40.7,14.7-41.1c0.3-0.5,0.9-0.6,1.7-0.5c2.3,0.3,4.7,1.4,7.5,3.1c0.5,1.1,0.7,2.3,0.6,3.6c-0.1,1.3-0.5,2.7-1,4.4
				c-11.3,40-22,68.2-32.2,84.6c-8,13.4-14.9,20.9-20.8,22.6C797.4,302.3,795.1,302.2,791.5,302z"/>
			<path class="st0" d="M919.5,291.7c-1.3-0.3-2.3-0.7-3.2-1.3c-10.6-5.9-18-14.7-22.3-26.6c-3.6-9.5-4.1-21.8-1.5-37
				c0.9-4.9,2.1-10.1,3.5-15.5c-12.2,16.9-21.5,26.3-27.7,28.2c-1.4,0.4-2.8,0.3-4.4-0.1c-4.7-1.2-9-3.9-12.8-8.3
				c-4.3-5.3-7.2-12.1-8.6-20.1c-1.5-8.1-1.6-15.7-0.3-22.9c1.9-11.1,6-21.6,12.1-31.4c5.1-8.2,10.7-11.5,16.9-10
				c2.2,0.6,4.5,1.7,6.9,3.5c7.4,5.1,10.3,12,8.7,20.8l-0.6,3.2c-0.8,4.6-4,13.3-9.7,26.2c-5.7,12.9-8.7,20.7-9.2,23.6
				c-0.1,0.5-0.1,0.8,0.1,0.8c0.6,0.1,3.8-2.5,9.6-7.9c6.2-6.4,14.6-18,25.2-34.8c2.9-4.4,5.6-10.2,8.3-17.5
				c8.9-23.4,16-36.7,21.3-39.8c3.2-2.1,6.5-2.7,9.9-1.8c3.1,0.8,6.3,2.7,9.6,5.8c5.1,4.8,8,11.2,8.8,19.2c0.1,2.3-0.1,4.8-0.6,7.7
				c-0.7,3.9-2,8.5-3.8,13.6c-10.3,28.2-16.7,46.5-19,55.1c-3.1,11-5.7,22.7-7.9,35l-2.5,15.5c1.8-0.5,3.2-1.2,4.5-2
				c12-8.4,23.6-25.3,35-50.7c0.7-1.5,1.9-2,3.5-1.6c3.9,1.1,6.1,2.9,6.5,5.3c0.3,1.4-1.4,5.9-5.1,13.6
				c-4.5,9.2-10.8,19.9-18.9,32.2c-10.1,12.8-17.9,19.7-23.4,20.8C926.1,292.9,923.1,292.6,919.5,291.7z"/>
		</g>
		<path class="st1" d="M479.8,290.7c-71.7-10.8-169.2-16.2-279,13.3c-74,19.8-42.9,56.8,9,48.1c11.8-2,20.6-6.1,40.7-13.6
			c49.1-18.4,127.6-37.6,227.8-28.5c24.5,2.2,31.5-1.9,31.1-7.9C509.1,297.6,500.3,293.8,479.8,290.7z"/>
	</g>
</g>
</svg>
